<svg width="16" height="21" viewBox="0 0 16 21" fill="none" xmlns="http://www.w3.org/2000/svg">
<path d="M4 8.5V5.5C4 3.29 5.79 1.5 8 1.5C10.21 1.5 12 3.29 12 5.5V8.5M8 13.5C8.26522 13.5 8.51957 13.3946 8.70711 13.2071C8.89464 13.0196 9 12.7652 9 12.5C9 12.2348 8.89464 11.9804 8.70711 11.7929C8.51957 11.6054 8.26522 11.5 8 11.5C7.73478 11.5 7.48043 11.6054 7.29289 11.7929C7.10536 11.9804 7 12.2348 7 12.5C7 12.7652 7.10536 13.0196 7.29289 13.2071C7.48043 13.3946 7.73478 13.5 8 13.5ZM8 13.5V16.5M2.6 8.5H13.4C14.28 8.5 15 9.22 15 10.1V17.1C15 18.42 13.92 19.5 12.6 19.5H3.4C2.08 19.5 1 18.42 1 17.1V10.1C1 9.22 1.72 8.5 2.6 8.5Z" stroke="#727272" stroke-width="1.5" stroke-miterlimit="10" stroke-linecap="round" stroke-linejoin="round"/>
</svg>
