<svg width="16" height="16" viewBox="0 0 16 16" fill="none" xmlns="http://www.w3.org/2000/svg">
<path d="M1.33333 2C0.979711 2 0.640573 2.14048 0.390524 2.39052C0.140476 2.64057 0 2.97971 0 3.33333L0 12C0 12.3536 0.140476 12.6928 0.390524 12.9428C0.640573 13.1929 0.979711 13.3333 1.33333 13.3333H1.724L1.39067 13.6667L2.33333 14.6093L3.60933 13.3333H5.33333V8H1.33333V3.33333H8.66667V4.66667H10V3.33333C10 2.97971 9.85952 2.64057 9.60948 2.39052C9.35943 2.14048 9.02029 2 8.66667 2H1.33333ZM2 10H3.336V11.336H2V10Z" fill="#727272"/>
<path d="M14.4513 5.3335H7.54867L6 9.20483V14.3335H7.33333V13.3335H14.6667V14.3335H16V9.20483L14.4513 5.3335ZM14.082 8.00016H7.918L8.45133 6.66683H13.5487L14.082 8.00016ZM8 10.0002H9.336V11.3362H8V10.0002ZM14.0027 10.0002V11.3362H12.6667V10.0002H14.0027Z" fill="#727272"/>
</svg>
