<svg width="34" height="34" viewBox="0 0 34 34" fill="none" xmlns="http://www.w3.org/2000/svg">
<path d="M16.2102 30.4207C13.4376 30.4291 10.7632 29.3952 8.71729 27.5241C6.67139 25.6529 5.40347 23.0812 5.165 20.3189C4.92654 17.5567 5.73493 14.8057 7.42987 12.6116C9.1248 10.4175 11.5825 8.9405 14.3154 8.47361C23.3154 6.73679 25.6838 5.91575 28.8417 2C30.4207 5.15786 31.9996 8.59993 31.9996 14.6314C31.9996 23.3156 24.4523 30.4207 16.2102 30.4207Z" stroke="#04BF68" stroke-width="4" stroke-linecap="round" stroke-linejoin="round"/>
<path d="M2 31.9999C2 27.2631 4.92105 23.5369 10.0211 22.5263C13.8421 21.7685 17.7895 19.3685 19.3684 17.7896" stroke="#04BF68" stroke-width="4" stroke-linecap="round" stroke-linejoin="round"/>
</svg>
