<svg width="16" height="8" viewBox="0 0 16 8" fill="none" xmlns="http://www.w3.org/2000/svg">
<path d="M8.43606 7.83214C8.3789 7.88535 8.31099 7.92757 8.23623 7.95637C8.16147 7.98517 8.08133 8 8.00039 8C7.91945 8 7.8393 7.98517 7.76454 7.95637C7.68978 7.92757 7.62188 7.88535 7.56472 7.83214L4.30826 4.80739L1.0518 7.83214C0.936256 7.93943 0.77954 7.9997 0.616132 7.9997C0.452724 7.9997 0.296008 7.93943 0.180461 7.83214C0.0649137 7.72486 3.80261e-07 7.57935 3.7704e-07 7.42762C3.73819e-07 7.2759 0.0649137 7.13039 0.180461 7.0231L3.87259 3.59497C3.92975 3.54176 3.99766 3.49955 4.07242 3.47074C4.14718 3.44194 4.22732 3.42711 4.30826 3.42711C4.3892 3.42711 4.46935 3.44194 4.54411 3.47074C4.61886 3.49955 4.68677 3.54176 4.74393 3.59497L8.00039 6.61973L13.8992 1.14271H11.0772C10.914 1.14271 10.7574 1.08252 10.642 0.975365C10.5266 0.868215 10.4618 0.722888 10.4618 0.571356C10.4618 0.419823 10.5266 0.274496 10.642 0.167346C10.7574 0.0601957 10.914 -9.10483e-08 11.0772 -9.10483e-08H15.3846C15.5478 -9.10483e-08 15.7044 0.0601957 15.8198 0.167346C15.9352 0.274496 16 0.419823 16 0.571356V4.57085C16 4.72238 15.9352 4.8677 15.8198 4.97485C15.7044 5.082 15.5478 5.1422 15.3846 5.1422C15.2214 5.1422 15.0649 5.082 14.9495 4.97485C14.8341 4.8677 14.7693 4.72238 14.7693 4.57085V1.95061L8.43606 7.83214Z" fill="white"/>
</svg>
