<svg width="24" height="24" viewBox="0 0 24 24" fill="none" xmlns="http://www.w3.org/2000/svg">
<g clip-path="url(#clip0_389_1360)">
<path d="M18.666 20H3.99935V5.33333H12.8127L14.146 4H3.99935C3.64573 4 3.30659 4.14048 3.05654 4.39052C2.80649 4.64057 2.66602 4.97971 2.66602 5.33333V20C2.66602 20.3536 2.80649 20.6928 3.05654 20.9428C3.30659 21.1929 3.64573 21.3333 3.99935 21.3333H18.666C19.0196 21.3333 19.3588 21.1929 19.6088 20.9428C19.8589 20.6928 19.9993 20.3536 19.9993 20V10L18.666 11.3333V20Z" fill="#04BF68"/>
<path d="M22.3536 3.89338L20.107 1.64671C20.0073 1.54673 19.8888 1.46741 19.7584 1.41328C19.628 1.35916 19.4882 1.3313 19.347 1.3313C19.2058 1.3313 19.066 1.35916 18.9355 1.41328C18.8051 1.46741 18.6867 1.54673 18.587 1.64671L9.44696 10.84L8.70696 14.0467C8.67544 14.2021 8.67875 14.3626 8.71667 14.5166C8.75458 14.6707 8.82616 14.8143 8.92625 14.9374C9.02633 15.0604 9.15244 15.1597 9.29551 15.2282C9.43857 15.2967 9.59503 15.3326 9.75363 15.3334C9.83561 15.3424 9.91832 15.3424 10.0003 15.3334L13.2336 14.62L22.3536 5.41338C22.4536 5.31367 22.5329 5.19522 22.5871 5.0648C22.6412 4.93439 22.669 4.79458 22.669 4.65338C22.669 4.51218 22.6412 4.37237 22.5871 4.24195C22.5329 4.11154 22.4536 3.99308 22.3536 3.89338ZM12.5403 13.3867L10.1003 13.9267L10.667 11.5067L17.547 4.58004L19.427 6.46004L12.5403 13.3867ZM20.1803 5.70671L18.3003 3.82671L19.3336 2.77338L21.227 4.66671L20.1803 5.70671Z" fill="#04BF68"/>
</g>
<defs>
<clipPath id="clip0_389_1360">
<rect width="24" height="24" fill="white"/>
</clipPath>
</defs>
</svg>
