<svg width="25" height="24" viewBox="0 0 25 24" fill="none" xmlns="http://www.w3.org/2000/svg">
<g clip-path="url(#clip0_361_1148)">
<path d="M19.167 20H4.50033V5.33333H13.3137L14.647 4H4.50033C4.1467 4 3.80756 4.14048 3.55752 4.39052C3.30747 4.64057 3.16699 4.97971 3.16699 5.33333V20C3.16699 20.3536 3.30747 20.6928 3.55752 20.9428C3.80756 21.1929 4.1467 21.3333 4.50033 21.3333H19.167C19.5206 21.3333 19.8598 21.1929 20.1098 20.9428C20.3598 20.6928 20.5003 20.3536 20.5003 20V10L19.167 11.3333V20Z" fill="black"/>
<path d="M22.8536 3.89338L20.607 1.64671C20.5073 1.54673 20.3888 1.46741 20.2584 1.41328C20.128 1.35916 19.9882 1.3313 19.847 1.3313C19.7058 1.3313 19.566 1.35916 19.4355 1.41328C19.3051 1.46741 19.1867 1.54673 19.087 1.64671L9.94696 10.84L9.20696 14.0467C9.17544 14.2021 9.17875 14.3626 9.21667 14.5166C9.25458 14.6707 9.32616 14.8143 9.42625 14.9374C9.52633 15.0604 9.65244 15.1597 9.79551 15.2282C9.93857 15.2967 10.095 15.3326 10.2536 15.3334C10.3356 15.3424 10.4183 15.3424 10.5003 15.3334L13.7336 14.62L22.8536 5.41338C22.9536 5.31367 23.0329 5.19522 23.0871 5.0648C23.1412 4.93439 23.169 4.79458 23.169 4.65338C23.169 4.51218 23.1412 4.37237 23.0871 4.24195C23.0329 4.11154 22.9536 3.99308 22.8536 3.89338ZM13.0403 13.3867L10.6003 13.9267L11.167 11.5067L18.047 4.58004L19.927 6.46004L13.0403 13.3867ZM20.6803 5.70671L18.8003 3.82671L19.8336 2.77338L21.727 4.66671L20.6803 5.70671Z" fill="black"/>
</g>
<defs>
<clipPath id="clip0_361_1148">
<rect width="24" height="24" fill="white" transform="translate(0.5)"/>
</clipPath>
</defs>
</svg>
