<svg width="18" height="22" viewBox="0 0 18 22" fill="none" xmlns="http://www.w3.org/2000/svg">
<path d="M17.6286 14.9989C17.5508 14.9052 17.4744 14.8114 17.3994 14.7209C16.3682 13.4736 15.7443 12.7208 15.7443 9.18969C15.7443 7.36156 15.3069 5.86156 14.4449 4.73656C13.8093 3.90547 12.95 3.275 11.8175 2.80906C11.803 2.80096 11.79 2.79032 11.7791 2.77766C11.3718 1.41359 10.2571 0.5 8.99989 0.5C7.74271 0.5 6.62849 1.41359 6.22114 2.77625C6.21029 2.78847 6.19746 2.79877 6.18318 2.80672C3.54036 3.89469 2.25599 5.98203 2.25599 9.18828C2.25599 12.7208 1.63302 13.4736 0.600833 14.7195C0.525833 14.81 0.449427 14.9019 0.371614 14.9975C0.170614 15.2399 0.0432647 15.5348 0.00463614 15.8473C-0.0339924 16.1598 0.0177171 16.4769 0.153645 16.7609C0.442864 17.3703 1.05927 17.7486 1.76286 17.7486H16.2421C16.9424 17.7486 17.5546 17.3708 17.8447 16.7642C17.9813 16.4801 18.0335 16.1628 17.9952 15.8499C17.9569 15.537 17.8297 15.2417 17.6286 14.9989ZM8.99989 21.5C9.67725 21.4995 10.3418 21.3156 10.9232 20.9679C11.5045 20.6202 11.9809 20.1217 12.3018 19.5252C12.3169 19.4966 12.3244 19.4646 12.3234 19.4322C12.3225 19.3999 12.3133 19.3684 12.2966 19.3407C12.2799 19.313 12.2563 19.2901 12.2281 19.2742C12.2 19.2583 12.1682 19.25 12.1358 19.25H5.86489C5.83252 19.2499 5.80066 19.2582 5.77243 19.274C5.7442 19.2899 5.72055 19.3128 5.7038 19.3405C5.68704 19.3682 5.67774 19.3997 5.67681 19.4321C5.67588 19.4645 5.68335 19.4965 5.69849 19.5252C6.01936 20.1216 6.49567 20.6201 7.0769 20.9678C7.65813 21.3155 8.32261 21.4994 8.99989 21.5Z" fill="#04BF68"/>
</svg>
