<svg width="25" height="24" viewBox="0 0 25 24" fill="none" xmlns="http://www.w3.org/2000/svg">
<path d="M22.3048 6.37084C22.3503 6.48044 22.3623 6.60108 22.3392 6.71749C22.3161 6.83391 22.2591 6.94086 22.1752 7.02484L19.7752 9.42484C19.7194 9.48052 19.6531 9.52465 19.5802 9.55471C19.5073 9.58478 19.4292 9.60018 19.3504 9.60004H15.9988L14.3752 11.2236C14.5582 11.6068 14.5999 12.0423 14.4928 12.4532C14.3858 12.8641 14.1369 13.224 13.7902 13.4691C13.4435 13.7143 13.0213 13.829 12.5982 13.793C12.1752 13.7569 11.7784 13.5725 11.4782 13.2723C11.1779 12.972 10.9935 12.5753 10.9575 12.1522C10.9214 11.7291 11.0361 11.3069 11.2813 10.9602C11.5265 10.6135 11.8863 10.3646 12.2972 10.2576C12.7081 10.1505 13.1436 10.1922 13.5268 10.3752L15.1504 8.75164V5.40004C15.1503 5.32119 15.1657 5.24309 15.1957 5.1702C15.2258 5.09731 15.2699 5.03106 15.3256 4.97524L17.7256 2.57524C17.8095 2.49111 17.9165 2.43379 18.033 2.41055C18.1496 2.38731 18.2704 2.39919 18.3801 2.4447C18.4899 2.4902 18.5837 2.56727 18.6496 2.66613C18.7155 2.765 18.7506 2.88121 18.7504 3.00004V6.00004H21.7504C21.8691 6.00006 21.9852 6.0353 22.0839 6.10131C22.1825 6.16731 22.2594 6.26111 22.3048 6.37084ZM20.302 7.20004H18.1504C17.9913 7.20004 17.8386 7.13682 17.7261 7.0243C17.6136 6.91178 17.5504 6.75917 17.5504 6.60004V4.44844L16.3504 5.64844V8.40004H19.102L20.302 7.20004ZM21.8788 9.01804C22.1848 9.95644 22.3504 10.9596 22.3504 12C22.35 14.028 21.7073 16.0037 20.5147 17.6438C19.322 19.284 17.6406 20.5043 15.7116 21.1298C13.7826 21.7554 11.705 21.754 9.7768 21.1258C7.84861 20.4977 6.16886 19.275 4.97845 17.6333C3.78803 15.9915 3.14809 14.0149 3.1504 11.987C3.15271 9.9591 3.79714 7.98399 4.9913 6.34494C6.18545 4.70589 7.86798 3.4871 9.79759 2.86335C11.7272 2.23959 13.8048 2.24291 15.7324 2.87284L14.7628 3.84244C12.9815 3.40323 11.1054 3.55928 9.42114 4.28674C7.73689 5.01419 6.33712 6.27306 5.4357 7.87098C4.53428 9.4689 4.18078 11.318 4.42924 13.1357C4.67769 14.9535 5.51442 16.6399 6.81158 17.9373C8.10874 19.2347 9.79499 20.0718 11.6127 20.3206C13.4304 20.5694 15.2795 20.2163 16.8776 19.3151C18.4757 18.414 19.7349 17.0145 20.4626 15.3304C21.1904 13.6463 21.3469 11.7702 20.908 9.98884L21.8788 9.01804ZM18.6304 10.8C18.7104 11.1888 18.7504 11.5888 18.7504 12C18.7501 13.2382 18.3669 14.4459 17.6531 15.4576C16.9394 16.4693 15.9301 17.2354 14.7638 17.6509C13.5974 18.0664 12.3311 18.1109 11.1385 17.7782C9.9459 17.4456 8.88539 16.7522 8.10242 15.7931C7.31946 14.8339 6.85239 13.6561 6.76526 12.421C6.67814 11.1859 6.97523 9.95417 7.6158 8.89462C8.25637 7.83507 9.20903 6.99964 10.3431 6.50289C11.4773 6.00614 12.7373 5.87241 13.9504 6.12004V7.35124C12.931 7.08825 11.8533 7.16772 10.8835 7.5774C9.91367 7.98709 9.10544 8.70427 8.58329 9.61848C8.06114 10.5327 7.85405 11.5932 7.9939 12.6367C8.13375 13.6802 8.6128 14.6487 9.35725 15.3932C10.1017 16.1376 11.0703 16.6167 12.1137 16.7565C13.1572 16.8964 14.2177 16.6893 15.1319 16.1671C16.0462 15.645 16.7633 14.8368 17.173 13.8669C17.5827 12.8971 17.6622 11.8195 17.3992 10.8H18.6304Z" fill="black"/>
</svg>
