<svg width="25" height="24" viewBox="0 0 25 24" fill="none" xmlns="http://www.w3.org/2000/svg">
<path d="M22.0548 6.37084C22.1003 6.48044 22.1123 6.60108 22.0892 6.71749C22.0661 6.83391 22.0091 6.94086 21.9252 7.02484L19.5252 9.42484C19.4694 9.48052 19.4031 9.52465 19.3302 9.55471C19.2573 9.58478 19.1792 9.60018 19.1004 9.60004H15.7488L14.1252 11.2236C14.3082 11.6068 14.3499 12.0423 14.2428 12.4532C14.1358 12.8641 13.8869 13.224 13.5402 13.4691C13.1935 13.7143 12.7713 13.829 12.3482 13.793C11.9252 13.7569 11.5284 13.5725 11.2282 13.2723C10.9279 12.972 10.7435 12.5753 10.7075 12.1522C10.6714 11.7291 10.7861 11.3069 11.0313 10.9602C11.2765 10.6135 11.6363 10.3646 12.0472 10.2576C12.4581 10.1505 12.8936 10.1922 13.2768 10.3752L14.9004 8.75164V5.40004C14.9003 5.32119 14.9157 5.24309 14.9457 5.1702C14.9758 5.09731 15.0199 5.03106 15.0756 4.97524L17.4756 2.57524C17.5595 2.49111 17.6665 2.43379 17.783 2.41055C17.8996 2.38731 18.0204 2.39919 18.1301 2.4447C18.2399 2.4902 18.3337 2.56727 18.3996 2.66613C18.4655 2.765 18.5006 2.88121 18.5004 3.00004V6.00004H21.5004C21.6191 6.00006 21.7352 6.0353 21.8339 6.10131C21.9325 6.16731 22.0094 6.26111 22.0548 6.37084ZM20.052 7.20004H17.9004C17.7413 7.20004 17.5886 7.13682 17.4761 7.0243C17.3636 6.91178 17.3004 6.75917 17.3004 6.60004V4.44844L16.1004 5.64844V8.40004H18.852L20.052 7.20004ZM21.6288 9.01804C21.9348 9.95644 22.1004 10.9596 22.1004 12C22.1 14.028 21.4573 16.0037 20.2647 17.6438C19.072 19.284 17.3906 20.5043 15.4616 21.1298C13.5326 21.7554 11.455 21.754 9.5268 21.1258C7.59861 20.4977 5.91886 19.275 4.72845 17.6333C3.53803 15.9915 2.89809 14.0149 2.9004 11.987C2.90271 9.9591 3.54714 7.98399 4.7413 6.34494C5.93545 4.70589 7.61798 3.4871 9.54759 2.86335C11.4772 2.23959 13.5548 2.24291 15.4824 2.87284L14.5128 3.84244C12.7315 3.40323 10.8554 3.55928 9.17114 4.28674C7.48689 5.01419 6.08712 6.27306 5.1857 7.87098C4.28428 9.4689 3.93078 11.318 4.17924 13.1357C4.42769 14.9535 5.26442 16.6399 6.56158 17.9373C7.85874 19.2347 9.54499 20.0718 11.3627 20.3206C13.1804 20.5694 15.0295 20.2163 16.6276 19.3151C18.2257 18.414 19.4849 17.0145 20.2126 15.3304C20.9404 13.6463 21.0969 11.7702 20.658 9.98884L21.6288 9.01804ZM18.3804 10.8C18.4604 11.1888 18.5004 11.5888 18.5004 12C18.5001 13.2382 18.1169 14.4459 17.4031 15.4576C16.6894 16.4693 15.6801 17.2354 14.5138 17.6509C13.3474 18.0664 12.0811 18.1109 10.8885 17.7782C9.6959 17.4456 8.63539 16.7522 7.85242 15.7931C7.06946 14.8339 6.60239 13.6561 6.51526 12.421C6.42814 11.1859 6.72523 9.95417 7.3658 8.89462C8.00637 7.83507 8.95903 6.99964 10.0931 6.50289C11.2273 6.00614 12.4873 5.87241 13.7004 6.12004V7.35124C12.681 7.08825 11.6033 7.16772 10.6335 7.5774C9.66367 7.98709 8.85544 8.70427 8.33329 9.61848C7.81114 10.5327 7.60405 11.5932 7.7439 12.6367C7.88375 13.6802 8.3628 14.6487 9.10725 15.3932C9.8517 16.1376 10.8203 16.6167 11.8637 16.7565C12.9072 16.8964 13.9677 16.6893 14.8819 16.1671C15.7962 15.645 16.5133 14.8368 16.923 13.8669C17.3327 12.8971 17.4122 11.8195 17.1492 10.8H18.3804Z" fill="#04BF68"/>
</svg>
