<svg width="24" height="24" viewBox="0 0 24 24" fill="none" xmlns="http://www.w3.org/2000/svg">
<g clip-path="url(#clip0_389_1366)">
<path d="M21.334 3.33337H2.66732C2.3137 3.33337 1.97456 3.47385 1.72451 3.7239C1.47446 3.97395 1.33398 4.31309 1.33398 4.66671V19.3334C1.33398 19.687 1.47446 20.0261 1.72451 20.2762C1.97456 20.5262 2.3137 20.6667 2.66732 20.6667H21.334C21.6876 20.6667 22.0267 20.5262 22.2768 20.2762C22.5268 20.0261 22.6673 19.687 22.6673 19.3334V4.66671C22.6673 4.31309 22.5268 3.97395 22.2768 3.7239C22.0267 3.47385 21.6876 3.33337 21.334 3.33337ZM2.66732 19.3334V4.66671H21.334V19.3334H2.66732Z" fill="#04BF68"/>
<path d="M10.4126 10.148L6.40055 15.9786L3.69922 13.5893L4.40589 12.7906L6.20455 14.3813L10.4219 8.2533L14.9219 14.93L19.4246 8.97996L20.2752 9.62396L14.8712 16.7633L10.4126 10.148Z" fill="#04BF68"/>
</g>
<defs>
<clipPath id="clip0_389_1366">
<rect width="24" height="24" fill="white"/>
</clipPath>
</defs>
</svg>
