<svg width="25" height="24" viewBox="0 0 25 24" fill="none" xmlns="http://www.w3.org/2000/svg">
<g clip-path="url(#clip0_361_1154)">
<path d="M22.083 3.33337H3.41634C3.06272 3.33337 2.72358 3.47385 2.47353 3.7239C2.22348 3.97395 2.08301 4.31309 2.08301 4.66671V19.3334C2.08301 19.687 2.22348 20.0261 2.47353 20.2762C2.72358 20.5262 3.06272 20.6667 3.41634 20.6667H22.083C22.4366 20.6667 22.7758 20.5262 23.0258 20.2762C23.2759 20.0261 23.4163 19.687 23.4163 19.3334V4.66671C23.4163 4.31309 23.2759 3.97395 23.0258 3.7239C22.7758 3.47385 22.4366 3.33337 22.083 3.33337ZM3.41634 19.3334V4.66671H22.083V19.3334H3.41634Z" fill="black"/>
<path d="M11.1635 10.148L7.15153 15.9786L4.4502 13.5893L5.15686 12.7906L6.95553 14.3813L11.1729 8.2533L15.6729 14.93L20.1755 8.97996L21.0262 9.62396L15.6222 16.7633L11.1635 10.148Z" fill="black"/>
</g>
<defs>
<clipPath id="clip0_361_1154">
<rect width="24" height="24" fill="white" transform="translate(0.75)"/>
</clipPath>
</defs>
</svg>
