<svg width="19" height="23" viewBox="0 0 19 23" fill="none" xmlns="http://www.w3.org/2000/svg">
<path d="M5.33301 14H13.333M5.33301 10H7.33301M5.33301 18H9.33301M7.33301 3H3.33301C2.80257 3 2.29387 3.21071 1.91879 3.58579C1.54372 3.96086 1.33301 4.46957 1.33301 5V20C1.33301 20.5304 1.54372 21.0391 1.91879 21.4142C2.29387 21.7893 2.80257 22 3.33301 22H15.333C15.8634 22 16.3721 21.7893 16.7472 21.4142C17.1223 21.0391 17.333 20.5304 17.333 20V5C17.333 4.46957 17.1223 3.96086 16.7472 3.58579C16.3721 3.21071 15.8634 3 15.333 3H11.833M7.33301 3V1M7.33301 3V5" stroke="black" stroke-width="1.5" stroke-linecap="round" stroke-linejoin="round"/>
</svg>
