<svg width="18" height="20" viewBox="0 0 18 20" fill="none" xmlns="http://www.w3.org/2000/svg">
<path d="M3.133 19C1.955 19 1 18.02 1 16.81V8.00803C1 7.34303 1.295 6.71303 1.8 6.29803L7.667 1.48003C8.04186 1.16961 8.5133 0.999756 9 0.999756C9.4867 0.999756 9.95814 1.16961 10.333 1.48003L16.199 6.29803C16.705 6.71303 17 7.34303 17 8.00803V16.81C17 18.02 16.045 19 14.867 19H3.133Z" stroke="#04BF68" stroke-width="1.5" stroke-linecap="round" stroke-linejoin="round"/>
<path d="M6.5 19V13.5C6.5 12.9696 6.71071 12.4609 7.08579 12.0858C7.46086 11.7107 7.96957 11.5 8.5 11.5H9.5C10.0304 11.5 10.5391 11.7107 10.9142 12.0858C11.2893 12.4609 11.5 12.9696 11.5 13.5V19" stroke="#04BF68" stroke-width="1.5" stroke-linecap="round" stroke-linejoin="round"/>
</svg>
