<svg width="25" height="25" viewBox="0 0 25 25" fill="none" xmlns="http://www.w3.org/2000/svg">
<path d="M15.5276 7.0318C14.9114 6.88123 14.2709 6.85902 13.6458 6.96654C13.0206 7.07406 12.4243 7.30901 11.8939 7.6568C11.8547 7.68278 11.8217 7.71699 11.7972 7.75705C11.7726 7.79711 11.7572 7.84205 11.7518 7.88872C11.7464 7.93539 11.7513 7.98267 11.7662 8.02725C11.781 8.07183 11.8054 8.11263 11.8376 8.1468C11.9055 8.22276 11.9981 8.27222 12.099 8.28641C12.2 8.30059 12.3026 8.27859 12.3889 8.2243C12.8249 7.93825 13.3152 7.74501 13.8292 7.65663C14.3431 7.56824 14.8698 7.5866 15.3764 7.71055C16.2662 7.86333 17.0597 8.36128 17.5843 9.09608C18.1089 9.83088 18.3221 10.7431 18.1776 11.6343L18.1439 11.7831C18.1034 11.9599 18.0482 12.133 17.9789 12.3005C17.9431 12.3989 17.9449 12.507 17.9839 12.6041C18.0229 12.7012 18.0963 12.7805 18.1901 12.8268C18.2328 12.8515 18.2801 12.8671 18.3291 12.8725C18.3782 12.878 18.4278 12.8731 18.4748 12.8583C18.5219 12.8435 18.5653 12.819 18.6024 12.7865C18.6394 12.7539 18.6693 12.714 18.6901 12.6693C18.801 12.4101 18.8824 12.1392 18.9326 11.8618L18.9438 11.8131C19.1195 10.7267 18.8591 9.61499 18.2193 8.71963C17.5796 7.82427 16.6122 7.21769 15.5276 7.0318ZM19.2776 23.3943H18.1264L19.4551 21.9456C19.6012 21.7621 19.6816 21.5351 19.6837 21.3006C19.6857 21.0661 19.6092 20.8377 19.4664 20.6518C19.3133 20.4606 19.1182 20.3074 18.8961 20.2042C18.6741 20.101 18.4311 20.0505 18.1864 20.0568C17.8027 20.0189 17.4193 20.1323 17.1179 20.3727C16.8165 20.6132 16.6209 20.9618 16.5726 21.3443C16.5994 21.4631 16.6657 21.5692 16.7608 21.6452C16.8559 21.7212 16.974 21.7626 17.0957 21.7626C17.2175 21.7626 17.3356 21.7212 17.4306 21.6452C17.5257 21.5692 17.5921 21.4631 17.6189 21.3443C17.637 21.2086 17.7074 21.0854 17.815 21.0009C17.9226 20.9164 18.059 20.8772 18.1951 20.8918C18.2662 20.8906 18.3366 20.9063 18.4005 20.9376C18.4644 20.9689 18.5199 21.0149 18.5626 21.0718C18.607 21.1295 18.633 21.1992 18.6373 21.2719C18.6415 21.3446 18.6238 21.4168 18.5864 21.4793L16.6726 23.5655C16.617 23.6223 16.5824 23.6963 16.5745 23.7754C16.5665 23.8544 16.5857 23.9338 16.6289 24.0005C16.6819 24.0739 16.7521 24.133 16.8335 24.1727C16.9148 24.2124 17.0047 24.2314 17.0951 24.2281H19.2764C19.3389 24.2423 19.4039 24.2422 19.4665 24.2279C19.5291 24.2136 19.5876 24.1853 19.6378 24.1453C19.6879 24.1052 19.7284 24.0544 19.7563 23.9966C19.7841 23.9387 19.7986 23.8754 19.7986 23.8112C19.7986 23.747 19.7841 23.6836 19.7563 23.6258C19.7284 23.5679 19.6879 23.5171 19.6378 23.4771C19.5876 23.437 19.5291 23.4088 19.4665 23.3945C19.4039 23.3801 19.3402 23.3801 19.2776 23.3943ZM8.58135 21.2518C8.27941 21.3679 7.95861 21.4273 7.6351 21.4268C7.12624 21.4774 6.61771 21.3274 6.21778 21.0088C5.81785 20.6901 5.55811 20.2279 5.49385 19.7206C5.55811 19.2132 5.81785 18.751 6.21778 18.4323C6.61771 18.1137 7.12624 17.9637 7.6351 18.0143C7.95501 18.0139 8.27231 18.0719 8.57135 18.1856C8.69257 18.2362 8.82728 18.2448 8.95395 18.2099C9.08061 18.175 9.19193 18.0986 9.2701 17.993C9.29847 17.9417 9.3147 17.8845 9.31752 17.8259C9.32035 17.7673 9.30971 17.7089 9.28641 17.655C9.26311 17.6012 9.22778 17.5534 9.18313 17.5154C9.13848 17.4773 9.0857 17.45 9.02885 17.4355C8.58357 17.2673 8.1111 17.1826 7.6351 17.1856C6.87778 17.1111 6.12126 17.3347 5.52613 17.809C4.931 18.2832 4.54411 18.9707 4.4476 19.7255C4.54382 20.4806 4.93057 21.1684 5.52574 21.6429C6.1209 22.1174 6.87759 22.3412 7.6351 22.2668C8.11734 22.2678 8.59553 22.1788 9.0451 22.0043C9.10194 21.9897 9.15466 21.9621 9.19915 21.9238C9.24365 21.8856 9.27874 21.8375 9.3017 21.7835C9.32467 21.7295 9.33489 21.6709 9.33157 21.6123C9.32826 21.5537 9.31151 21.4966 9.2826 21.4456C9.20447 21.3392 9.09279 21.2622 8.96557 21.2271C8.83836 21.1919 8.70301 21.2006 8.58135 21.2518ZM12.7701 17.1768C12.0128 17.1017 11.2561 17.3252 10.661 17.7995C10.0659 18.2739 9.67946 18.9618 9.58385 19.7168C9.68007 20.4716 10.0666 21.1592 10.6615 21.6337C11.2564 22.1082 12.0128 22.3321 12.7701 22.2581C13.5276 22.3325 14.2843 22.1087 14.8795 21.6342C15.4746 21.1597 15.8614 20.4719 15.9576 19.7168C15.8611 18.962 15.4742 18.2745 14.8791 17.8002C14.2839 17.326 13.5274 17.1024 12.7701 17.1768ZM12.7701 21.4268C12.2603 21.4781 11.7506 21.3279 11.35 21.0083C10.9494 20.6888 10.6897 20.2253 10.6264 19.7168C10.6906 19.2097 10.9502 18.7477 11.3498 18.4291C11.7495 18.1104 12.2577 17.9603 12.7664 18.0105C13.2752 17.9599 13.7837 18.1099 14.1837 18.4286C14.5836 18.7473 14.8433 19.2095 14.9076 19.7168C14.8433 20.2234 14.5841 20.685 14.185 21.0036C13.7859 21.3222 13.2784 21.4726 12.7701 21.423V21.4268ZM7.73635 16.0368C7.84297 16.031 7.94329 15.9845 8.0167 15.907C8.09011 15.8294 8.13101 15.7267 8.13101 15.6199C8.13101 15.5132 8.09011 15.4104 8.0167 15.3329C7.94329 15.2554 7.84297 15.2089 7.73635 15.2031H4.65885C3.75998 15.2041 2.88953 14.8882 2.20052 14.3109C1.51151 13.7336 1.04805 12.932 0.891615 12.0468C0.735183 11.1617 0.895794 10.2497 1.34521 9.47125C1.79463 8.6928 2.50408 8.09769 3.34885 7.79055C3.44849 7.75298 3.52994 7.67865 3.57644 7.58285C3.62294 7.48705 3.63096 7.37708 3.59885 7.27555C3.38989 6.64736 3.30848 5.98376 3.35939 5.32368C3.4103 4.66361 3.5925 4.02034 3.89532 3.43162C4.19814 2.8429 4.61547 2.32057 5.12284 1.89528C5.6302 1.46999 6.21738 1.1503 6.84994 0.954952C7.4825 0.759607 8.14771 0.692545 8.80653 0.757699C9.46535 0.822853 10.1045 1.01891 10.6866 1.33437C11.2686 1.64984 11.7818 2.07835 12.196 2.59478C12.6103 3.11122 12.9172 3.70517 13.0989 4.3418C13.1226 4.41571 13.1662 4.4817 13.2248 4.5326C13.2834 4.5835 13.3548 4.61738 13.4314 4.63055C13.5079 4.64337 13.5865 4.63434 13.6581 4.60449C13.7298 4.57464 13.7916 4.52518 13.8364 4.4618C14.2233 3.92426 14.7321 3.48615 15.3212 3.18346C15.9103 2.88077 16.5628 2.72212 17.2251 2.72055H17.2526C17.8107 2.71928 18.3631 2.83231 18.8758 3.05266C19.3885 3.27302 19.8507 3.59603 20.2339 4.0018C20.6251 4.40715 20.9299 4.88769 21.1299 5.41432C21.33 5.94095 21.421 6.5027 21.3976 7.06555C21.3953 7.17434 21.4355 7.27975 21.5097 7.35933C21.5839 7.4389 21.6863 7.48635 21.795 7.49156C21.9037 7.49678 22.0101 7.45935 22.0916 7.38724C22.1731 7.31514 22.2233 7.21407 22.2314 7.10555C22.26 6.42948 22.1512 5.75462 21.9114 5.12186C21.6716 4.48909 21.3059 3.91158 20.8364 3.4243C20.3765 2.93832 19.8225 2.55114 19.208 2.28636C18.5936 2.02159 17.9317 1.88479 17.2626 1.8843C16.5883 1.88276 15.9206 2.01662 15.2989 2.27793C14.6773 2.53924 14.1145 2.92269 13.6439 3.40555C13.0951 2.19751 12.1492 1.21381 10.9635 0.618136C9.77793 0.0224661 8.42408 -0.149253 7.12729 0.131553C5.83049 0.412359 4.66896 1.12876 3.83596 2.16154C3.00296 3.19432 2.54873 4.4812 2.54885 5.80805C2.54924 6.26137 2.60209 6.71313 2.70635 7.1543C1.74222 7.59871 0.958966 8.35933 0.486471 9.31C0.0139754 10.2607 -0.11937 11.3443 0.108548 12.3812C0.336467 13.418 0.911955 14.3459 1.73958 15.0108C2.5672 15.6756 3.59723 16.0377 4.65885 16.0368H7.73635ZM23.2976 7.7793C23.2114 7.71498 23.1037 7.68643 22.9969 7.69959C22.8901 7.71275 22.7926 7.76662 22.7245 7.84995C22.6565 7.93329 22.6233 8.03966 22.6318 8.1469C22.6403 8.25413 22.6898 8.35395 22.7701 8.42555C23.379 8.92517 23.8187 9.60068 24.029 10.3597C24.2394 11.1187 24.2101 11.9242 23.9452 12.6659C23.6804 13.4077 23.1929 14.0495 22.5493 14.5037C21.9058 14.9578 21.1377 15.2021 20.3501 15.2031H9.4451C9.33849 15.2089 9.23816 15.2554 9.16475 15.3329C9.09135 15.4104 9.05044 15.5132 9.05044 15.6199C9.05044 15.7267 9.09135 15.8294 9.16475 15.907C9.23816 15.9845 9.33849 16.031 9.4451 16.0368H20.3501C21.3099 16.036 22.246 15.7385 23.0303 15.1852C23.8145 14.6319 24.4086 13.8498 24.7313 12.9459C25.054 12.0419 25.0894 11.0604 24.8328 10.1355C24.5761 9.21065 24.0399 8.38771 23.2976 7.7793Z" fill="#04BF68"/>
</svg>
