<svg width="16" height="8" viewBox="0 0 16 8" fill="none" xmlns="http://www.w3.org/2000/svg">
<path d="M8.43606 0.167857C8.3789 0.114649 8.31099 0.0724339 8.23623 0.0436302C8.16147 0.0148265 8.08133 0 8.00039 0C7.91945 0 7.8393 0.0148265 7.76454 0.0436302C7.68978 0.0724339 7.62188 0.114649 7.56472 0.167857L4.30826 3.19261L1.0518 0.167857C0.936256 0.0605716 0.77954 0.000299685 0.616132 0.000299688C0.452724 0.000299691 0.296008 0.0605715 0.180461 0.167857C0.0649137 0.275142 0 0.420652 0 0.572377C0 0.724101 0.0649137 0.869611 0.180461 0.976897L3.87259 4.40503C3.92975 4.45824 3.99766 4.50045 4.07242 4.52926C4.14717 4.55806 4.22732 4.57289 4.30826 4.57289C4.3892 4.57289 4.46935 4.55806 4.54411 4.52926C4.61887 4.50045 4.68677 4.45824 4.74393 4.40503L8.00039 1.38027L13.8992 6.85729H11.0772C10.914 6.85729 10.7574 6.91748 10.642 7.02463C10.5266 7.13178 10.4618 7.27711 10.4618 7.42864C10.4618 7.58018 10.5266 7.7255 10.642 7.83265C10.7574 7.9398 10.914 8 11.0772 8H15.3846C15.5478 8 15.7044 7.9398 15.8198 7.83265C15.9352 7.7255 16 7.58018 16 7.42864V3.42915C16 3.27762 15.9352 3.1323 15.8198 3.02515C15.7044 2.918 15.5478 2.8578 15.3846 2.8578C15.2214 2.8578 15.0649 2.918 14.9495 3.02515C14.8341 3.1323 14.7693 3.27762 14.7693 3.42915V6.04939L8.43606 0.167857Z" fill="white"/>
</svg>
