<svg width="30" height="30" viewBox="0 0 30 30" fill="none" xmlns="http://www.w3.org/2000/svg">
<path d="M9.78105 16.25L15.9061 22.375C16.1561 22.625 16.2761 22.9167 16.2661 23.25C16.2561 23.5833 16.1256 23.875 15.8748 24.125C15.6248 24.3542 15.3331 24.4742 14.9998 24.485C14.6665 24.4958 14.3748 24.3758 14.1248 24.125L5.8748 15.875C5.7498 15.75 5.66105 15.6146 5.60855 15.4688C5.55605 15.3229 5.53064 15.1667 5.5323 15C5.53397 14.8333 5.56022 14.6771 5.61105 14.5312C5.66189 14.3854 5.75022 14.25 5.87605 14.125L14.1261 5.875C14.3552 5.64583 14.6419 5.53125 14.9861 5.53125C15.3302 5.53125 15.6269 5.64583 15.8761 5.875C16.1261 6.125 16.2511 6.42208 16.2511 6.76625C16.2511 7.11042 16.1261 7.40708 15.8761 7.65625L9.78105 13.75H23.7498C24.104 13.75 24.4011 13.87 24.6411 14.11C24.8811 14.35 25.0006 14.6467 24.9998 15C24.999 15.3533 24.879 15.6504 24.6398 15.8913C24.4006 16.1321 24.104 16.2517 23.7498 16.25H9.78105Z" fill="#727272"/>
</svg>
