<svg width="30" height="30" viewBox="0 0 30 30" fill="none" xmlns="http://www.w3.org/2000/svg">
<path d="M26.25 28.125V7.5H20.625V1.875H3.75V28.125H0V30H13.125V24.375H16.875V30H30V28.125H26.25ZM11.25 20.625H7.5V16.875H11.25V20.625ZM11.25 15H7.5V11.25H11.25V15ZM11.25 9.375H7.5V5.625H11.25V9.375ZM16.875 20.625H13.125V16.875H16.875V20.625ZM16.875 15H13.125V11.25H16.875V15ZM16.875 9.375H13.125V5.625H16.875V9.375ZM24.375 20.625H20.625V16.875H24.375V20.625ZM24.375 15H20.625V11.25H24.375V15Z" fill="#04BF68"/>
</svg>
