<svg width="21" height="20" viewBox="0 0 21 20" fill="none" xmlns="http://www.w3.org/2000/svg">
<path d="M20.3002 10.2273C20.3002 9.51822 20.2366 8.83642 20.1184 8.18182H10.7002V12.05H16.082C15.8502 13.3 15.1457 14.3591 14.0866 15.0682V17.5773H17.3184C19.2093 15.8364 20.3002 13.2727 20.3002 10.2273Z" fill="#4285F4"/>
<path d="M10.7001 20C13.4001 20 15.6637 19.1045 17.3182 17.5773L14.0864 15.0682C13.191 15.6682 12.0455 16.0227 10.7001 16.0227C8.09547 16.0227 5.89097 14.2636 5.10457 11.9H1.76367V14.4909C3.40917 17.7591 6.79097 20 10.7001 20Z" fill="#34A853"/>
<path d="M5.10469 11.9C4.90469 11.3 4.7911 10.6591 4.7911 9.99999C4.7911 9.34089 4.90469 8.69999 5.10469 8.09999V5.50909H1.76379C1.08659 6.85909 0.700195 8.38639 0.700195 9.99999C0.700195 11.6136 1.08659 13.1409 1.76379 14.4909L5.10469 11.9Z" fill="#FBBC04"/>
<path d="M10.7001 3.9773C12.1682 3.9773 13.4864 4.4818 14.5228 5.4727L17.391 2.6045C15.6592 0.9909 13.3955 0 10.7001 0C6.79097 0 3.40917 2.2409 1.76367 5.5091L5.10457 8.1C5.89097 5.7364 8.09547 3.9773 10.7001 3.9773Z" fill="#E94235"/>
</svg>
