<svg width="24" height="24" viewBox="0 0 24 24" fill="none" xmlns="http://www.w3.org/2000/svg">
<path d="M2 3C1.46957 3 0.960859 3.21071 0.585786 3.58579C0.210714 3.96086 0 4.46957 0 5L0 18C0 18.5304 0.210714 19.0391 0.585786 19.4142C0.960859 19.7893 1.46957 20 2 20H2.586L2.086 20.5L3.5 21.914L5.414 20H8V12H2V5H13V7H15V5C15 4.46957 14.7893 3.96086 14.4142 3.58579C14.0391 3.21071 13.5304 3 13 3H2ZM3 15H5.004V17.004H3V15Z" fill="#727272"/>
<path d="M21.677 8H11.323L9 13.807V21.5H11V20H22V21.5H24V13.807L21.677 8ZM21.123 12H11.877L12.677 10H20.323L21.123 12ZM12 15H14.004V17.004H12V15ZM21.004 15V17.004H19V15H21.004Z" fill="#727272"/>
</svg>
