<svg width="24" height="24" viewBox="0 0 24 24" fill="none" xmlns="http://www.w3.org/2000/svg">
<path d="M21 21.9667V5.1H16.5V0.5H3V21.9667H0V23.5H10.5V18.9H13.5V23.5H24V21.9667H21ZM9 15.8333H6V12.7667H9V15.8333ZM9 11.2333H6V8.16667H9V11.2333ZM9 6.63333H6V3.56667H9V6.63333ZM13.5 15.8333H10.5V12.7667H13.5V15.8333ZM13.5 11.2333H10.5V8.16667H13.5V11.2333ZM13.5 6.63333H10.5V3.56667H13.5V6.63333ZM19.5 15.8333H16.5V12.7667H19.5V15.8333ZM19.5 11.2333H16.5V8.16667H19.5V11.2333Z" fill="#04BF68"/>
</svg>
