<svg width="40" height="38" viewBox="0 0 40 38" fill="none" xmlns="http://www.w3.org/2000/svg">
<path d="M35 35.4667V7.6H27.5V0H5V35.4667H0V38H17.5V30.4H22.5V38H40V35.4667H35ZM15 25.3333H10V20.2667H15V25.3333ZM15 17.7333H10V12.6667H15V17.7333ZM15 10.1333H10V5.06667H15V10.1333ZM22.5 25.3333H17.5V20.2667H22.5V25.3333ZM22.5 17.7333H17.5V12.6667H22.5V17.7333ZM22.5 10.1333H17.5V5.06667H22.5V10.1333ZM32.5 25.3333H27.5V20.2667H32.5V25.3333ZM32.5 17.7333H27.5V12.6667H32.5V17.7333Z" fill="white"/>
</svg>
