<svg width="18" height="19" viewBox="0 0 18 19" fill="none" xmlns="http://www.w3.org/2000/svg">
<path d="M1 15.5C1 14.4391 1.42143 13.4217 2.17157 12.6716C2.92172 11.9214 3.93913 11.5 5 11.5H13C14.0609 11.5 15.0783 11.9214 15.8284 12.6716C16.5786 13.4217 17 14.4391 17 15.5C17 16.0304 16.7893 16.5391 16.4142 16.9142C16.0391 17.2893 15.5304 17.5 15 17.5H3C2.46957 17.5 1.96086 17.2893 1.58579 16.9142C1.21071 16.5391 1 16.0304 1 15.5Z" stroke="#727272" stroke-width="2" stroke-linejoin="round"/>
<path d="M9 7.5C10.6569 7.5 12 6.15685 12 4.5C12 2.84315 10.6569 1.5 9 1.5C7.34315 1.5 6 2.84315 6 4.5C6 6.15685 7.34315 7.5 9 7.5Z" stroke="#727272" stroke-width="2"/>
</svg>
