<svg width="20" height="21" viewBox="0 0 20 21" fill="none" xmlns="http://www.w3.org/2000/svg">
<path d="M10 0.5C15.523 0.5 20 4.977 20 10.5C20 16.023 15.523 20.5 10 20.5C4.477 20.5 0 16.023 0 10.5C0 4.977 4.477 0.5 10 0.5ZM10 2.5C7.87827 2.5 5.84344 3.34285 4.34315 4.84315C2.84285 6.34344 2 8.37827 2 10.5C2 12.6217 2.84285 14.6566 4.34315 16.1569C5.84344 17.6571 7.87827 18.5 10 18.5C12.1217 18.5 14.1566 17.6571 15.6569 16.1569C17.1571 14.6566 18 12.6217 18 10.5C18 8.37827 17.1571 6.34344 15.6569 4.84315C14.1566 3.34285 12.1217 2.5 10 2.5ZM10 14.5C10.2652 14.5 10.5196 14.6054 10.7071 14.7929C10.8946 14.9804 11 15.2348 11 15.5C11 15.7652 10.8946 16.0196 10.7071 16.2071C10.5196 16.3946 10.2652 16.5 10 16.5C9.73478 16.5 9.48043 16.3946 9.29289 16.2071C9.10536 16.0196 9 15.7652 9 15.5C9 15.2348 9.10536 14.9804 9.29289 14.7929C9.48043 14.6054 9.73478 14.5 10 14.5ZM10 5C10.8423 5.00003 11.6583 5.29335 12.3078 5.8296C12.9573 6.36585 13.3998 7.11154 13.5593 7.93858C13.7188 8.76562 13.5853 9.62239 13.1818 10.3617C12.7783 11.101 12.1299 11.6768 11.348 11.99C11.2322 12.0326 11.1278 12.1014 11.043 12.191C10.999 12.241 10.992 12.305 10.993 12.371L11 12.5C10.9997 12.7549 10.9021 13 10.7272 13.1854C10.5522 13.3707 10.313 13.4822 10.0586 13.4972C9.80416 13.5121 9.55362 13.4293 9.35817 13.2657C9.16271 13.1021 9.0371 12.8701 9.007 12.617L9 12.5V12.25C9 11.097 9.93 10.405 10.604 10.134C10.8783 10.0245 11.1176 9.84227 11.2962 9.60699C11.4748 9.37171 11.5859 9.09222 11.6176 8.79856C11.6493 8.50489 11.6004 8.20813 11.4762 7.94014C11.352 7.67215 11.1571 7.44307 10.9125 7.27748C10.6679 7.11189 10.3829 7.01606 10.0879 7.00027C9.79295 6.98448 9.49927 7.04934 9.23839 7.18787C8.97752 7.3264 8.75931 7.53338 8.60719 7.78658C8.45508 8.03978 8.37481 8.32962 8.375 8.625C8.375 8.89022 8.26964 9.14457 8.08211 9.33211C7.89457 9.51964 7.64022 9.625 7.375 9.625C7.10978 9.625 6.85543 9.51964 6.66789 9.33211C6.48036 9.14457 6.375 8.89022 6.375 8.625C6.375 7.66359 6.75692 6.74156 7.43674 6.06174C8.11656 5.38192 9.03859 5 10 5Z" fill="#727272"/>
</svg>
