<svg width="17" height="21" viewBox="0 0 17 21" fill="none" xmlns="http://www.w3.org/2000/svg">
<path d="M6 10.5C6 11.163 5.73661 11.7989 5.26777 12.2678C4.79893 12.7366 4.16304 13 3.5 13C2.83696 13 2.20107 12.7366 1.73223 12.2678C1.26339 11.7989 1 11.163 1 10.5C1 9.83696 1.26339 9.20107 1.73223 8.73223C2.20107 8.26339 2.83696 8 3.5 8C4.16304 8 4.79893 8.26339 5.26777 8.73223C5.73661 9.20107 6 9.83696 6 10.5Z" stroke="white" stroke-width="1.5"/>
<path d="M11 5L6 8.5M11 16L6 12.5" stroke="white" stroke-width="1.5" stroke-linecap="round"/>
<path d="M16 17C16 17.663 15.7366 18.2989 15.2678 18.7678C14.7989 19.2366 14.163 19.5 13.5 19.5C12.837 19.5 12.2011 19.2366 11.7322 18.7678C11.2634 18.2989 11 17.663 11 17C11 16.337 11.2634 15.7011 11.7322 15.2322C12.2011 14.7634 12.837 14.5 13.5 14.5C14.163 14.5 14.7989 14.7634 15.2678 15.2322C15.7366 15.7011 16 16.337 16 17ZM16 4C16 4.66304 15.7366 5.29893 15.2678 5.76777C14.7989 6.23661 14.163 6.5 13.5 6.5C12.837 6.5 12.2011 6.23661 11.7322 5.76777C11.2634 5.29893 11 4.66304 11 4C11 3.33696 11.2634 2.70107 11.7322 2.23223C12.2011 1.76339 12.837 1.5 13.5 1.5C14.163 1.5 14.7989 1.76339 15.2678 2.23223C15.7366 2.70107 16 3.33696 16 4Z" stroke="white" stroke-width="1.5"/>
</svg>
