<svg width="16" height="21" viewBox="0 0 16 21" fill="none" xmlns="http://www.w3.org/2000/svg">
<path d="M5 11.5H11C11.2833 11.5 11.521 11.404 11.713 11.212C11.905 11.02 12.0007 10.7827 12 10.5C11.9993 10.2173 11.9033 9.98 11.712 9.788C11.5207 9.596 11.2833 9.5 11 9.5H5C4.71667 9.5 4.47933 9.596 4.288 9.788C4.09667 9.98 4.00067 10.2173 4 10.5C3.99933 10.7827 4.09533 11.0203 4.288 11.213C4.48067 11.4057 4.718 11.5013 5 11.5ZM5 14.5H11C11.2833 14.5 11.521 14.404 11.713 14.212C11.905 14.02 12.0007 13.7827 12 13.5C11.9993 13.2173 11.9033 12.98 11.712 12.788C11.5207 12.596 11.2833 12.5 11 12.5H5C4.71667 12.5 4.47933 12.596 4.288 12.788C4.09667 12.98 4.00067 13.2173 4 13.5C3.99933 13.7827 4.09533 14.0203 4.288 14.213C4.48067 14.4057 4.718 14.5013 5 14.5ZM5 17.5H8C8.28333 17.5 8.521 17.404 8.713 17.212C8.905 17.02 9.00067 16.7827 9 16.5C8.99933 16.2173 8.90333 15.98 8.712 15.788C8.52067 15.596 8.28333 15.5 8 15.5H5C4.71667 15.5 4.47933 15.596 4.288 15.788C4.09667 15.98 4.00067 16.2173 4 16.5C3.99933 16.7827 4.09533 17.0203 4.288 17.213C4.48067 17.4057 4.718 17.5013 5 17.5ZM2 20.5C1.45 20.5 0.979333 20.3043 0.588 19.913C0.196666 19.5217 0.000666667 19.0507 0 18.5V2.5C0 1.95 0.196 1.47933 0.588 1.088C0.98 0.696667 1.45067 0.500667 2 0.5H9.175C9.44167 0.5 9.696 0.55 9.938 0.65C10.18 0.75 10.3923 0.891667 10.575 1.075L15.425 5.925C15.6083 6.10833 15.75 6.321 15.85 6.563C15.95 6.805 16 7.059 16 7.325V18.5C16 19.05 15.8043 19.521 15.413 19.913C15.0217 20.305 14.5507 20.5007 14 20.5H2ZM14 7.5H10.5C10.0833 7.5 9.72933 7.35433 9.438 7.063C9.14667 6.77167 9.00067 6.41733 9 6V2.5H2V18.5H14V7.5Z" fill="#727272"/>
</svg>
