<svg width="13" height="13" viewBox="0 0 13 13" fill="none" xmlns="http://www.w3.org/2000/svg">
<path fill-rule="evenodd" clip-rule="evenodd" d="M1.65535 0.528864C2.46668 -0.277802 3.80268 -0.134469 4.48202 0.773531L5.32335 1.8962C5.87668 2.63486 5.82735 3.66686 5.17068 4.31953L5.01202 4.4782C4.99403 4.5448 4.9922 4.61474 5.00668 4.6822C5.04868 4.9542 5.27602 5.5302 6.22802 6.47686C7.18002 7.42353 7.76002 7.6502 8.03602 7.69286C8.10556 7.70685 8.17738 7.7048 8.24602 7.68686L8.51802 7.4162C9.10202 6.8362 9.99802 6.72753 10.7207 7.1202L11.994 7.81353C13.0854 8.40553 13.3607 9.8882 12.4674 10.7769L11.52 11.7182C11.2214 12.0149 10.82 12.2622 10.3307 12.3082C9.12402 12.4209 6.31268 12.2769 3.35735 9.33886C0.599352 6.5962 0.070018 4.2042 0.00268467 3.02553C-0.0306487 2.42953 0.250685 1.92553 0.609351 1.56953L1.65535 0.528864ZM3.68202 1.37286C3.34402 0.921531 2.71468 0.885531 2.36002 1.2382L1.31335 2.2782C1.09335 2.49686 0.988018 2.7382 1.00135 2.96886C1.05468 3.90553 1.48135 6.06353 4.06268 8.6302C6.77068 11.3222 9.27135 11.4029 10.238 11.3122C10.4354 11.2942 10.6314 11.1915 10.8147 11.0095L11.7614 10.0675C12.1467 9.68486 12.062 8.98753 11.5167 8.69153L10.2434 7.99886C9.89135 7.8082 9.47935 7.87086 9.22335 8.12553L8.92002 8.42753L8.56668 8.07286C8.92002 8.42753 8.91935 8.4282 8.91868 8.4282L8.91802 8.42953L8.91602 8.43153L8.91135 8.43553L8.90135 8.44486C8.87322 8.47099 8.84288 8.49463 8.81068 8.51553C8.75735 8.55086 8.68668 8.5902 8.59802 8.62286C8.41802 8.6902 8.17935 8.7262 7.88468 8.68086C7.30668 8.5922 6.54068 8.1982 5.52268 7.1862C4.50535 6.1742 4.10802 5.41286 4.01868 4.83553C3.97268 4.54086 4.00935 4.3022 4.07735 4.1222C4.11478 4.02091 4.16836 3.92635 4.23602 3.8422L4.25735 3.81886L4.26668 3.80886L4.27068 3.80486L4.27268 3.80286L4.27402 3.80153L4.46602 3.61086C4.75135 3.3262 4.79135 2.85486 4.52268 2.49553L3.68202 1.37286Z" fill="black"/>
</svg>
