<svg width="12" height="13" viewBox="0 0 12 13" fill="none" xmlns="http://www.w3.org/2000/svg">
<path d="M5.99756 1.72072e-07C6.78162 -0.00023996 7.54512 0.250861 8.17599 0.716447C8.80685 1.18203 9.27185 1.83758 9.50275 2.58688C9.73365 3.33618 9.71828 4.13976 9.45889 4.87968C9.19951 5.6196 8.70977 6.25688 8.06156 6.698C9.18666 7.11066 10.1625 7.85062 10.8635 8.82261C11.5645 9.79461 11.9585 10.9542 11.9949 12.152C11.9983 12.2185 11.9884 12.285 11.9657 12.3476C11.9431 12.4102 11.9082 12.4677 11.863 12.5166C11.8179 12.5655 11.7634 12.6049 11.7028 12.6325C11.6422 12.6601 11.5768 12.6754 11.5102 12.6773C11.4437 12.6793 11.3774 12.6679 11.3153 12.6439C11.2532 12.6199 11.1965 12.5838 11.1486 12.5376C11.1006 12.4914 11.0624 12.436 11.0361 12.3749C11.0099 12.3137 10.9961 12.2479 10.9956 12.1813C10.9559 10.8823 10.4119 9.64978 9.47901 8.74494C8.5461 7.8401 7.29753 7.33407 5.99789 7.33407C4.69826 7.33407 3.44969 7.8401 2.51678 8.74494C1.58387 9.64978 1.03993 10.8823 1.00023 12.1813C0.996247 12.3139 0.939753 12.4395 0.843172 12.5305C0.746591 12.6214 0.617833 12.6703 0.485225 12.6663C0.352617 12.6624 0.22702 12.6059 0.136065 12.5093C0.0451102 12.4127 -0.00375304 12.2839 0.000225208 12.1513C0.036724 10.9536 0.430822 9.7942 1.1318 8.82234C1.83278 7.85047 2.80856 7.11062 3.93356 6.698C3.28535 6.25688 2.79561 5.6196 2.53623 4.87968C2.27684 4.13976 2.26147 3.33618 2.49237 2.58688C2.72326 1.83758 3.18827 1.18203 3.81913 0.716447C4.45 0.250861 5.21349 -0.00023996 5.99756 1.72072e-07ZM3.33089 3.66667C3.33089 4.37391 3.61184 5.05219 4.11194 5.55228C4.61204 6.05238 5.29031 6.33333 5.99756 6.33333C6.7048 6.33333 7.38308 6.05238 7.88318 5.55228C8.38327 5.05219 8.66423 4.37391 8.66423 3.66667C8.66423 2.95942 8.38327 2.28115 7.88318 1.78105C7.38308 1.28095 6.7048 1 5.99756 1C5.29031 1 4.61204 1.28095 4.11194 1.78105C3.61184 2.28115 3.33089 2.95942 3.33089 3.66667Z" fill="black"/>
</svg>
